<svg xmlns="http://www.w3.org/2000/svg" width="30.657" height="30.889" viewBox="0 0 30.657 30.889">
  <g id="noun-barber-3004341_1_" data-name="noun-barber-3004341 (1)" transform="translate(0.247 6.87) rotate(-16)">
    <g id="Group_1551" data-name="Group 1551" transform="translate(0 0)">
      <path id="Path_28719" data-name="Path 28719" d="M23.611,2.926c-.209,0-.419,0-.628-.006l-.17,0q-.251-.005-.5-.014l-.135,0q-.309-.012-.616-.029l-.108-.006q-.285-.017-.567-.037A44.257,44.257,0,0,1,11.156.878,16.276,16.276,0,0,0,7.131,0,7.138,7.138,0,0,0,4.543,13.788L7.251,23.9H1.707a.414.414,0,0,0,0,.828h19.58a.414.414,0,0,0,0-.828H10.933l1.47-.395A.414.414,0,0,0,12.7,23l-.744-2.781a2.937,2.937,0,0,0-1.446-5.4L10.2,13.675q.458-.131.957-.278a44.225,44.225,0,0,1,9.751-1.95q.263-.019.53-.035l.13-.008q.3-.017.606-.028l.144,0q.246-.009.494-.014l.173,0c.209,0,.418-.006.627-.006a.414.414,0,0,0,.414-.414V3.34A.414.414,0,0,0,23.611,2.926Zm-2.384,7.668V3.68q.952.059,1.97.072v6.77Q22.178,10.533,21.227,10.594ZM10.736,15.675a2.11,2.11,0,0,1,.986,3.686l-.559-2.088Zm-.4,1.727.728,2.722,0,.009.718,2.681-3.7.994-2.6-9.727.036.008.048.011q.126.028.254.052l.054.01.1.016.1.016.093.013.1.013.093.011.1.01.093.008.1.008.092.006.107,0,.09,0,.127,0h.065c.057,0,.116,0,.175,0l.047,0,.152-.01.086-.008.1-.01.1-.012.034,0q.119-.015.242-.035l.02,0c.4-.066.84-.166,1.314-.291Zm.583-4.8c-.474.139-.918.269-1.334.384H9.584c-.538.148-1.087.289-1.592.375l-.019,0-.14.022-.013,0c-.074.011-.147.02-.219.028l-.079.009-.075.006-.105.007-.053,0c-.054,0-.107,0-.158,0H7.117c-.074,0-.148,0-.221,0l-.057,0q-.111-.005-.222-.014L6.56,13.42c-.072-.007-.144-.014-.216-.023l-.037,0c-.069-.009-.137-.019-.205-.031l-.063-.011q-.1-.018-.2-.039l-.078-.017-.169-.04-.117-.031-.107-.03c-.084-.025-.167-.05-.249-.078h0A6.31,6.31,0,0,1,7.131.828a15.95,15.95,0,0,1,3.792.844A45.561,45.561,0,0,0,20.4,3.619v7.037A45.562,45.562,0,0,0,10.923,12.6Z" transform="translate(0 0)" stroke="#000" stroke-width="0.4"/>
      <path id="Path_28720" data-name="Path 28720" d="M3.99,0A3.994,3.994,0,1,0,7.98,3.994,4,4,0,0,0,3.99,0Zm0,7.16A3.166,3.166,0,1,1,7.152,3.994,3.167,3.167,0,0,1,3.99,7.16Z" transform="translate(2.829 3.018)" stroke="#000" stroke-width="0.4"/>
      <path id="Path_28721" data-name="Path 28721" d="M.415,2a.413.413,0,0,0,.178-.04L3.049.788A.414.414,0,1,0,2.693.04L.236,1.212A.414.414,0,0,0,.415,2Z" transform="translate(25.031 3.231)" stroke="#000" stroke-width="0.4"/>
      <path id="Path_28722" data-name="Path 28722" d="M3.219.06.423,0H.414A.414.414,0,0,0,.405.828l2.8.06h.009A.414.414,0,0,0,3.219.06Z" transform="translate(25.576 6.705)" stroke="#000" stroke-width="0.4"/>
      <path id="Path_28723" data-name="Path 28723" d="M3,1.327.61.049a.414.414,0,1,0-.391.73L2.605,2.057A.414.414,0,1,0,3,1.327Z" transform="translate(24.734 8.937)" stroke="#000" stroke-width="0.4"/>
    </g>
  </g>
</svg>
