<svg xmlns="http://www.w3.org/2000/svg" width="33.095" height="29.635" viewBox="0 0 33.095 29.635">
  <g id="noun-clean-7279552" transform="translate(0.2 0.2)">
    <path id="Path_28718" data-name="Path 28718" d="M23.843,19.615a.515.515,0,0,1-.678.774,5.306,5.306,0,0,0-7.223.237l-.356.356a5.3,5.3,0,0,0,0,7.473l.028.031a15.83,15.83,0,0,1,2.614,3.235,5.213,5.213,0,0,1,.731,2.967.151.151,0,0,0,.008.065l.04.048a.148.148,0,0,0,.055.03.147.147,0,0,0,.063,0,15.041,15.041,0,0,0,3.782-1.593l-2.688-2.689a.516.516,0,1,1,.73-.73L23.8,32.664a15,15,0,0,0,1.714-1.382L22.5,28.268a.516.516,0,1,1,.73-.73l3.013,3.013a15.131,15.131,0,0,0,1.381-1.714L24.778,25.99a.516.516,0,1,1,.73-.73L28.2,27.947a15.035,15.035,0,0,0,1.593-3.781.156.156,0,0,0,0-.065.136.136,0,0,0-.03-.054l-.046-.04A.171.171,0,0,0,29.653,24a4.9,4.9,0,0,1-1.768-.208l-.024-.008a6.822,6.822,0,0,1-1.744-.86.515.515,0,0,1,.569-.859,5.782,5.782,0,0,0,1.48.737l.023.007a3.884,3.884,0,0,0,1.4.164,1.14,1.14,0,0,1,.943.391l.031.034a1.147,1.147,0,0,1,.223,1.038,16.1,16.1,0,0,1-4.161,7.211l-.019.019A16.1,16.1,0,0,1,19.4,35.823a1.175,1.175,0,0,1-.546.016,1.152,1.152,0,0,1-.492-.239,1.168,1.168,0,0,1-.315-.4l-.016-.035a1.15,1.15,0,0,1-.093-.538,4.228,4.228,0,0,0-.6-2.405,14.866,14.866,0,0,0-2.447-3.012l-.026-.024a6.344,6.344,0,0,1-1.23-7.192L3.2,11.561a2.357,2.357,0,0,1,0-3.326L3.229,8.2a2.356,2.356,0,0,1,3.3.03L16.958,18.666a6.348,6.348,0,0,1,6.887.947Zm9.047,9.458a.516.516,0,0,1,0-1.033h.383v-.383a.516.516,0,1,1,1.033,0v.383h.383a.516.516,0,0,1,0,1.033h-.383v.383a.516.516,0,1,1-1.033,0v-.383Zm-19.959,6.8a.516.516,0,1,1,0-1.033h.383v-.383a.516.516,0,0,1,1.033,0v.383h.383a.516.516,0,1,1,0,1.033h-.383v.383a.516.516,0,1,1-1.033,0v-.383Zm14.668-2.7a3.109,3.109,0,0,0,2.214-2.214.515.515,0,0,1,1,0,3.109,3.109,0,0,0,2.214,2.214.515.515,0,0,1,0,1,3.109,3.109,0,0,0-2.214,2.214.515.515,0,0,1-1,0A3.109,3.109,0,0,0,27.6,34.167a.515.515,0,0,1,0-1Zm2.136-.078a4.118,4.118,0,0,1-.723.577,4.13,4.13,0,0,1,1.3,1.3,4.13,4.13,0,0,1,1.3-1.3,4.13,4.13,0,0,1-1.3-1.3A4.118,4.118,0,0,1,29.735,33.093ZM19.274,13.033a3.109,3.109,0,0,0,2.214-2.214.515.515,0,0,1,1,0A3.109,3.109,0,0,0,24.7,13.033a.515.515,0,0,1,0,1,3.109,3.109,0,0,0-2.214,2.214.515.515,0,0,1-1,0,3.11,3.11,0,0,0-.808-1.406l-.024-.026a3.086,3.086,0,0,0-1.381-.782.515.515,0,0,1,0-1Zm2.136-.078a4.128,4.128,0,0,1-.725.577,4.091,4.091,0,0,1,.694.547l.031.028a4.118,4.118,0,0,1,.577.723,4.13,4.13,0,0,1,1.3-1.3,4.13,4.13,0,0,1-1.3-1.3,4.174,4.174,0,0,1-.575.723Zm-6.456,5.172c-.094.062-.188.128-.28.2a5.5,5.5,0,0,0-.551.48l-.359.356a5.481,5.481,0,0,0-.479.551c-.07.093-.136.186-.2.281l1.08,1.08a6.274,6.274,0,0,1,.691-.82l.36-.358a6.364,6.364,0,0,1,.817-.69l-1.081-1.081Zm-2.61,1.127.117-.16a6.379,6.379,0,0,1,.573-.66l.358-.358a6.224,6.224,0,0,1,.66-.573l.16-.116L5.793,8.968a1.33,1.33,0,0,0-1.846-.024l-.023.024a1.328,1.328,0,0,0,0,1.869l8.419,8.419Zm12.917,1.7a.514.514,0,0,1-.682.77l-.058-.051a.514.514,0,0,1,.682-.77Z" transform="translate(-2.51 -7.545)" stroke="#000" stroke-width="0.4"/>
  </g>
</svg>
