<svg xmlns="http://www.w3.org/2000/svg" width="25.64" height="28.116" viewBox="0 0 25.64 28.116">
  <path id="cool_to_dry_24dp_E8EAED_FILL0_wght300_GRAD0_opsz24" d="M189.2-847.184a10.432,10.432,0,0,1-6.546-3.449A9.98,9.98,0,0,1,180-857.562a9.9,9.9,0,0,1,.826-4.07,10.9,10.9,0,0,1,2.283-3.311l7.508-7.367,7.508,7.367a11.432,11.432,0,0,1,1.929,2.642,10.307,10.307,0,0,1,1.06,3.154H198.97a8.187,8.187,0,0,0-.832-2.276,8.04,8.04,0,0,0-1.5-1.957l-6.017-5.946L184.6-863.38a7.719,7.719,0,0,0-1.858,2.643,8.117,8.117,0,0,0-.619,3.174,7.969,7.969,0,0,0,2.035,5.408,8.309,8.309,0,0,0,5.043,2.825ZM190.547-859.346Zm2.02,6.1-.672-1.538a10.322,10.322,0,0,1,1.8-.739,6.411,6.411,0,0,1,1.879-.285,6.629,6.629,0,0,1,1.563.188,11.864,11.864,0,0,1,1.506.471q.664.283,1.333.5a4.467,4.467,0,0,0,1.4.219,4.78,4.78,0,0,0,1.552-.256,11.354,11.354,0,0,0,1.467-.618l.672,1.552a9.9,9.9,0,0,1-1.806.732,6.628,6.628,0,0,1-1.885.278,6.617,6.617,0,0,1-1.563-.188,11.883,11.883,0,0,1-1.506-.471q-.664-.283-1.333-.5a4.474,4.474,0,0,0-1.4-.219,4.72,4.72,0,0,0-1.545.256A11.572,11.572,0,0,0,192.567-853.25Zm0,3.975-.672-1.538a10.343,10.343,0,0,1,1.8-.739,6.415,6.415,0,0,1,1.879-.285,6.617,6.617,0,0,1,1.563.188,11.9,11.9,0,0,1,1.506.471q.664.283,1.333.5a4.474,4.474,0,0,0,1.4.219,4.783,4.783,0,0,0,1.552-.256,11.388,11.388,0,0,0,1.467-.618l.672,1.552a9.93,9.93,0,0,1-1.806.732,6.628,6.628,0,0,1-1.885.278,6.61,6.61,0,0,1-1.563-.188,11.864,11.864,0,0,1-1.506-.471q-.664-.283-1.333-.5a4.477,4.477,0,0,0-1.4-.219,4.717,4.717,0,0,0-1.545.256A11.554,11.554,0,0,0,192.567-849.275Zm0,3.974-.672-1.538a10.361,10.361,0,0,1,1.8-.739,6.415,6.415,0,0,1,1.879-.285,6.61,6.61,0,0,1,1.563.188,11.9,11.9,0,0,1,1.506.471q.664.283,1.333.5a4.477,4.477,0,0,0,1.4.219,4.78,4.78,0,0,0,1.552-.256,11.371,11.371,0,0,0,1.467-.618l.672,1.552a9.9,9.9,0,0,1-1.806.733,6.636,6.636,0,0,1-1.885.277,6.629,6.629,0,0,1-1.563-.187,11.883,11.883,0,0,1-1.506-.471q-.664-.283-1.333-.5a4.467,4.467,0,0,0-1.4-.219,4.72,4.72,0,0,0-1.545.256A11.572,11.572,0,0,0,192.567-845.3Z" transform="translate(-179.75 872.66)" stroke="#f7f7f7" stroke-width="0.5"/>
</svg>
