<svg xmlns="http://www.w3.org/2000/svg" width="14.274" height="14.274" viewBox="0 0 14.274 14.274">
  <path id="info_24dp_E8EAED_FILL1_wght300_GRAD0_opsz24" d="M106.53-849.294h1.323v-4.64H106.53Zm.607-5.606a.587.587,0,0,0,.432-.174.587.587,0,0,0,.174-.432.587.587,0,0,0-.174-.432.587.587,0,0,0-.432-.174.587.587,0,0,0-.432.174.587.587,0,0,0-.174.432.587.587,0,0,0,.174.432A.587.587,0,0,0,107.137-854.9Zm0,9.174a6.953,6.953,0,0,1-2.784-.562,7.209,7.209,0,0,1-2.267-1.525,7.208,7.208,0,0,1-1.526-2.266,6.946,6.946,0,0,1-.562-2.783,6.953,6.953,0,0,1,.562-2.784,7.21,7.21,0,0,1,1.525-2.267,7.209,7.209,0,0,1,2.266-1.526,6.947,6.947,0,0,1,2.783-.562,6.952,6.952,0,0,1,2.784.562,7.208,7.208,0,0,1,2.267,1.525,7.208,7.208,0,0,1,1.526,2.266,6.946,6.946,0,0,1,.562,2.783,6.953,6.953,0,0,1-.562,2.784,7.209,7.209,0,0,1-1.525,2.267,7.207,7.207,0,0,1-2.266,1.526A6.947,6.947,0,0,1,107.139-845.726Z" transform="translate(114.274 -845.726) rotate(180)" fill="#dd0f0f"/>
</svg>
