<svg id="FB" xmlns="http://www.w3.org/2000/svg" width="18.871" height="18.872" viewBox="0 0 18.871 18.872">
  <rect id="Rectangle_6747" data-name="Rectangle 6747" width="18.871" height="18.871" rx="2" transform="translate(0 0)" fill="#fff"/>
  <path id="Path_28433" data-name="Path 28433" d="M60.738,9,58.977,9C57,9,55.72,10.392,55.72,12.547v1.635H53.949a.263.263,0,0,0-.106.022.275.275,0,0,0-.09.064.3.3,0,0,0-.06.1.31.31,0,0,0-.021.112v2.369a.3.3,0,0,0,.081.208.269.269,0,0,0,.2.086H55.72v5.979a.309.309,0,0,0,.021.112.3.3,0,0,0,.06.1.277.277,0,0,0,.09.064.262.262,0,0,0,.106.022h2.31a.263.263,0,0,0,.106-.022.277.277,0,0,0,.09-.064.3.3,0,0,0,.06-.1.309.309,0,0,0,.021-.112V17.139h2.071a.263.263,0,0,0,.106-.022.276.276,0,0,0,.09-.064.3.3,0,0,0,.06-.1.308.308,0,0,0,.021-.112V14.476a.3.3,0,0,0-.081-.208.269.269,0,0,0-.2-.086H58.584V12.8c0-.666.15-1,.968-1h1.186a.269.269,0,0,0,.2-.086.3.3,0,0,0,.081-.208V9.3a.3.3,0,0,0-.081-.208A.269.269,0,0,0,60.738,9Z" transform="translate(-47.797 -4.54)"/>
</svg>
