<svg id="instagram-logo-svgrepo-com" xmlns="http://www.w3.org/2000/svg" width="18.051" height="18.871" viewBox="0 0 18.051 18.871">
  <path id="Path_28424" data-name="Path 28424" d="M13.07,0H4.981A5.1,5.1,0,0,0,0,5.208v8.456a5.1,5.1,0,0,0,4.981,5.208H13.07a5.1,5.1,0,0,0,4.982-5.208V5.208A5.1,5.1,0,0,0,13.07,0Zm3.38,13.663A3.463,3.463,0,0,1,13.07,17.2H4.981A3.463,3.463,0,0,1,1.6,13.663V5.208a3.463,3.463,0,0,1,3.38-3.533H13.07a3.463,3.463,0,0,1,3.38,3.533v8.456Z" fill="#fff"/>
  <path id="Path_28425" data-name="Path 28425" d="M45.619,40.97a5.079,5.079,0,1,0,4.651,5.061A4.875,4.875,0,0,0,45.619,40.97Zm0,8.38a3.33,3.33,0,1,1,3.05-3.318A3.2,3.2,0,0,1,45.619,49.35Z" transform="translate(-36.594 -36.596)" fill="#fff"/>
  <path id="Path_28426" data-name="Path 28426" d="M120.1,28.251a1.174,1.174,0,1,0,.831.344A1.179,1.179,0,0,0,120.1,28.251Z" transform="translate(-106.224 -25.077)" fill="#fff"/>
</svg>
