<svg id="Linkedin" xmlns="http://www.w3.org/2000/svg" width="19.742" height="18.872" viewBox="0 0 19.742 18.872">
  <path id="Path_28949" data-name="Path 28949" d="M4.48,6.139H.25V18.872H4.48ZM2.365,4.4A2.207,2.207,0,1,0,2.393,0a2.206,2.206,0,1,0-.055,4.4Z" transform="translate(0)" fill="#fff" fill-rule="evenodd"/>
  <path id="Path_28950" data-name="Path 28950" d="M6.2,18.339h4.231V11.228a2.835,2.835,0,0,1,.141-1.032,2.312,2.312,0,0,1,2.17-1.548c1.531,0,2.144,1.167,2.144,2.879v6.811h4.233v-7.3c0-3.911-2.089-5.73-4.873-5.73a4.215,4.215,0,0,0-3.842,2.144h.028V5.606H6.2c.056,1.194,0,12.733,0,12.733" transform="translate(0.622 0.532)" fill="#fff" fill-rule="evenodd"/>
</svg>
