<svg xmlns="http://www.w3.org/2000/svg" width="26.152" height="13.205" viewBox="0 0 26.152 13.205">
  <g id="Mail" transform="translate(-1070 -1199)">
    <path id="Path_28535" data-name="Path 28535" d="M29.695,20.794l3-1.268a.581.581,0,1,0-.453-1.07l-2.749,1.162-2.215-1.143a.581.581,0,1,0-.533,1.032L29.2,20.775a.566.566,0,0,0,.065.024c.017.006.033.014.05.019a.577.577,0,0,0,.144.021h.013a.578.578,0,0,0,.2-.04C29.677,20.8,29.686,20.8,29.695,20.794Z" transform="translate(1058.056 1183.945)" fill="#fff"/>
    <path id="Path_28536" data-name="Path 28536" d="M11.383,15.486A.581.581,0,0,0,10.8,14.9H5.681a.581.581,0,1,0,0,1.162H10.8a.581.581,0,0,0,.581-.581Z" transform="translate(1066.995 1185.414)" fill="#fff"/>
    <path id="Path_28537" data-name="Path 28537" d="M2.074,24.069H7.2a.581.581,0,1,0,0-1.162H2.074a.581.581,0,1,0,0,1.162Z" transform="translate(1068.507 1182.06)" fill="#fff"/>
    <path id="Path_28538" data-name="Path 28538" d="M3.677,30.909a.581.581,0,0,0,0,1.162H8.8a.581.581,0,0,0,0-1.162Z" transform="translate(1067.835 1178.707)" fill="#fff"/>
    <path id="Path_28539" data-name="Path 28539" d="M31.676,12.635H20.965a3.111,3.111,0,0,0-2.9,2.4l-1.824,8.1a2.291,2.291,0,0,0,.393,1.951,2.06,2.06,0,0,0,1.649.76H29.192a3.1,3.1,0,0,0,2.9-2.468l1.646-8.1a2.253,2.253,0,0,0-.419-1.89,2.076,2.076,0,0,0-1.646-.75Zm.927,2.408L31.17,22.088c-.007,0-.012,0-.019,0H22.094a.581.581,0,1,0,0,1.162h8.83a1.951,1.951,0,0,1-1.732,1.43H18.287a.909.909,0,0,1-.741-.324,1.127,1.127,0,0,1-.167-.97l1.824-8.1a1.964,1.964,0,0,1,1.763-1.49H31.676a.924.924,0,0,1,.747.324A1.088,1.088,0,0,1,32.6,15.043Z" transform="translate(1062.354 1186.366)" fill="#fff"/>
    <path id="Path_28540" data-name="Path 28540" d="M21.16,28.95a.568.568,0,0,0-.186.122.592.592,0,0,0-.174.412.582.582,0,0,0,.174.412.7.7,0,0,0,.186.128.57.57,0,0,0,.221.041.586.586,0,0,0,.412-.168.574.574,0,0,0,.168-.412.583.583,0,0,0-.168-.412.6.6,0,0,0-.633-.122Z" transform="translate(1060.415 1179.545)" fill="#fff"/>
    <path id="Path_28541" data-name="Path 28541" d="M37.832,24.956H36.405a.581.581,0,1,0,0,1.162h1.427a.581.581,0,0,0,0-1.162Z" transform="translate(1054.118 1181.202)" fill="#fff"/>
  </g>
</svg>
