<svg xmlns="http://www.w3.org/2000/svg" width="16.235" height="18.871" viewBox="0 0 16.235 18.871">
  <path id="Threads" d="M25.634,8.746q-.122-.058-.247-.112C25.24,5.95,23.774,4.414,21.311,4.4h-.033a3.979,3.979,0,0,0-3.452,1.773L19.18,7.1a2.4,2.4,0,0,1,2.1-1.037H21.3a2.3,2.3,0,0,1,1.819.7A2.762,2.762,0,0,1,23.7,8.144a10.361,10.361,0,0,0-2.327-.112c-2.341.135-3.846,1.5-3.745,3.4a2.926,2.926,0,0,0,1.35,2.331,4.167,4.167,0,0,0,2.512.63A3.71,3.71,0,0,0,24.34,13a5.14,5.14,0,0,0,.973-2.549,3.007,3.007,0,0,1,1.255,1.373,3.427,3.427,0,0,1-.84,3.772,5.839,5.839,0,0,1-4.471,1.607,6.105,6.105,0,0,1-5.04-2.137,9.1,9.1,0,0,1-1.586-5.634A9.1,9.1,0,0,1,16.218,3.8a6.106,6.106,0,0,1,5.04-2.137,6.31,6.31,0,0,1,5.128,2.147,6.983,6.983,0,0,1,1.263,2.571l1.587-.423a8.59,8.59,0,0,0-1.594-3.211A7.852,7.852,0,0,0,21.263,0h-.011a7.644,7.644,0,0,0-6.307,2.76A10.708,10.708,0,0,0,13,9.429v.013a10.709,10.709,0,0,0,1.945,6.669,7.644,7.644,0,0,0,6.307,2.76h.011a7.4,7.4,0,0,0,5.607-2.083,5.106,5.106,0,0,0,1.193-5.629A4.822,4.822,0,0,0,25.634,8.746ZM21.4,12.729c-1.026.058-2.092-.4-2.145-1.389-.039-.731.521-1.548,2.208-1.645q.29-.017.569-.017a8.019,8.019,0,0,1,1.707.173C23.543,12.28,22.4,12.674,21.4,12.729Z" transform="translate(-13)" fill="#fff"/>
</svg>
